<svg width="1440" height="900" viewBox="0 0 1440 900" fill="none" xmlns="http://www.w3.org/2000/svg">
  <rect width="1440" height="900" rx="28" fill="#050816"/>
  <rect x="32" y="32" width="280" height="836" rx="28" fill="#0D1326" stroke="#1E293B"/>
  <rect x="96" y="84" width="72" height="72" rx="24" fill="url(#grad1)"/>
  <text x="184" y="120" fill="#E2E8F0" font-family="Arial" font-size="28" font-weight="700">SignalOps</text>
  <text x="184" y="152" fill="#64748B" font-family="Arial" font-size="16">Cloud reliability console</text>
  <rect x="72" y="220" width="200" height="54" rx="18" fill="#13203A"/>
  <rect x="72" y="294" width="200" height="54" rx="18" fill="#0F172A"/>
  <rect x="72" y="368" width="200" height="54" rx="18" fill="#0F172A"/>
  <text x="360" y="92" fill="#67E8F9" font-family="Arial" font-size="14" letter-spacing="3">OPERATIONS OVERVIEW</text>
  <text x="360" y="140" fill="#F8FAFC" font-family="Arial" font-size="40" font-weight="700">Reliability posture across services</text>
  <text x="360" y="176" fill="#94A3B8" font-family="Arial" font-size="18">Error rates, incidents, alerts, and health scores in one premium console.</text>
  <rect x="360" y="224" width="200" height="132" rx="28" fill="#101A31" stroke="#1E293B"/>
  <rect x="582" y="224" width="200" height="132" rx="28" fill="#101A31" stroke="#1E293B"/>
  <rect x="804" y="224" width="200" height="132" rx="28" fill="#101A31" stroke="#1E293B"/>
  <rect x="1026" y="224" width="200" height="132" rx="28" fill="#101A31" stroke="#1E293B"/>
  <rect x="360" y="388" width="560" height="248" rx="28" fill="#0E162B" stroke="#1E293B"/>
  <rect x="944" y="388" width="282" height="248" rx="28" fill="#0E162B" stroke="#1E293B"/>
  <rect x="360" y="660" width="866" height="176" rx="28" fill="#0E162B" stroke="#1E293B"/>
  <polyline points="400,560 500,520 600,532 700,470 800,488 880,438" stroke="#38BDF8" stroke-width="4" fill="none"/>
  <polyline points="970,560 1020,530 1070,516 1120,534 1170,482" stroke="#34D399" stroke-width="4" fill="none"/>
  <defs>
    <linearGradient id="grad1" x1="96" y1="84" x2="168" y2="156" gradientUnits="userSpaceOnUse">
      <stop stop-color="#22D3EE"/>
      <stop offset="1" stop-color="#34D399"/>
    </linearGradient>
  </defs>
</svg>

