<svg width="1440" height="900" viewBox="0 0 1440 900" fill="none" xmlns="http://www.w3.org/2000/svg">
  <rect width="1440" height="900" rx="28" fill="#050816"/>
  <rect x="28" y="28" width="1384" height="844" rx="30" fill="#0B1222" stroke="#1E293B"/>
  <text x="70" y="98" fill="#67E8F9" font-family="Arial" font-size="14" letter-spacing="3">INCIDENT MANAGEMENT</text>
  <text x="70" y="146" fill="#F8FAFC" font-family="Arial" font-size="38" font-weight="700">Clustered failure investigation queue</text>
  <rect x="70" y="194" width="910" height="618" rx="28" fill="#0F172A" stroke="#1E293B"/>
  <rect x="1008" y="194" width="332" height="618" rx="28" fill="#111C33" stroke="#1E293B"/>
  <rect x="96" y="240" width="858" height="84" rx="20" fill="#111827"/>
  <rect x="96" y="340" width="858" height="84" rx="20" fill="#0F172A" stroke="#1E293B"/>
  <rect x="96" y="440" width="858" height="84" rx="20" fill="#0F172A" stroke="#1E293B"/>
  <rect x="96" y="540" width="858" height="84" rx="20" fill="#0F172A" stroke="#1E293B"/>
  <rect x="1038" y="238" width="272" height="116" rx="20" fill="#0F172A"/>
  <rect x="1038" y="378" width="272" height="160" rx="20" fill="#0F172A"/>
  <rect x="1038" y="562" width="272" height="214" rx="20" fill="#0F172A"/>
  <text x="1048" y="270" fill="#F8FAFC" font-family="Arial" font-size="24" font-weight="700">Payment API timeout burst</text>
  <text x="1048" y="304" fill="#94A3B8" font-family="Arial" font-size="16">Grouped repeated critical failures with owner and note workflow.</text>
</svg>

